<svg width="25" height="24" viewBox="0 0 25 24" fill="none" xmlns="http://www.w3.org/2000/svg">
<g id="chevron-right 2">
<path id="Vector" fill-rule="evenodd" clip-rule="evenodd" d="M7.47034 2.46936C7.54001 2.39952 7.62277 2.34411 7.71389 2.3063C7.80501 2.26849 7.90269 2.24902 8.00134 2.24902C8.09999 2.24902 8.19767 2.26849 8.28879 2.3063C8.37991 2.34411 8.46267 2.39952 8.53234 2.46936L17.5323 11.4694C17.6022 11.539 17.6576 11.6218 17.6954 11.7129C17.7332 11.804 17.7527 11.9017 17.7527 12.0004C17.7527 12.099 17.7332 12.1967 17.6954 12.2878C17.6576 12.3789 17.6022 12.4617 17.5323 12.5314L8.53234 21.5314C8.39151 21.6722 8.2005 21.7513 8.00134 21.7513C7.80218 21.7513 7.61117 21.6722 7.47034 21.5314C7.32951 21.3905 7.25039 21.1995 7.25039 21.0004C7.25039 20.8012 7.32951 20.6102 7.47034 20.4694L15.9408 12.0004L7.47034 3.53136C7.4005 3.4617 7.34508 3.37893 7.30727 3.28781C7.26946 3.1967 7.25 3.09902 7.25 3.00036C7.25 2.90171 7.26946 2.80403 7.30727 2.71291C7.34508 2.6218 7.4005 2.53903 7.47034 2.46936Z" fill="#FAFAFA"/>
</g>
</svg>
