<svg width="20" height="20" viewBox="0 0 20 20" fill="none" xmlns="http://www.w3.org/2000/svg">
<g id="ExclamationTriangle" clip-path="url(#clip0_2343_2968)">
<path id="Vector" d="M9.92213 2.51982C9.94663 2.50638 9.97418 2.49949 10.0021 2.49982C10.0296 2.49971 10.0567 2.50659 10.0809 2.51982C10.1093 2.53715 10.1326 2.56175 10.1484 2.59107L18.7196 17.1748C18.7646 17.2498 18.7634 17.3298 18.7221 17.4036C18.705 17.4329 18.682 17.4584 18.6546 17.4786C18.6305 17.4951 18.6013 17.5026 18.5721 17.4998H1.43213C1.40299 17.5026 1.37379 17.4951 1.34963 17.4786C1.32226 17.4584 1.2993 17.4329 1.28213 17.4036C1.26205 17.3687 1.2517 17.3291 1.25214 17.2889C1.25258 17.2486 1.2638 17.2092 1.28463 17.1748L9.85463 2.59107C9.8704 2.56175 9.8937 2.53715 9.92213 2.51982ZM11.2271 1.95732C11.1034 1.74177 10.925 1.56269 10.7099 1.43816C10.4948 1.31362 10.2507 1.24805 10.0021 1.24805C9.75359 1.24805 9.50945 1.31362 9.29437 1.43816C9.07928 1.56269 8.90086 1.74177 8.77713 1.95732L0.205877 16.5411C-0.365373 17.5136 0.319627 18.7498 1.43088 18.7498H18.5721C19.6834 18.7498 20.3696 17.5123 19.7971 16.5411L11.2271 1.95732Z" fill="#E34150"/>
<path id="Vector_2" d="M8.75391 15.0004C8.75391 14.8362 8.78624 14.6737 8.84906 14.522C8.91188 14.3704 9.00395 14.2326 9.12002 14.1165C9.2361 14.0004 9.3739 13.9084 9.52555 13.8455C9.67721 13.7827 9.83975 13.7504 10.0039 13.7504C10.1681 13.7504 10.3306 13.7827 10.4823 13.8455C10.6339 13.9084 10.7717 14.0004 10.8878 14.1165C11.0039 14.2326 11.0959 14.3704 11.1588 14.522C11.2216 14.6737 11.2539 14.8362 11.2539 15.0004C11.2539 15.3319 11.1222 15.6499 10.8878 15.8843C10.6534 16.1187 10.3354 16.2504 10.0039 16.2504C9.67239 16.2504 9.35444 16.1187 9.12002 15.8843C8.8856 15.6499 8.75391 15.3319 8.75391 15.0004ZM8.87641 7.49414C8.85976 7.33644 8.87645 7.17701 8.92541 7.02618C8.97436 6.87535 9.05447 6.73649 9.16055 6.61862C9.26664 6.50076 9.39631 6.40651 9.54117 6.34199C9.68603 6.27748 9.84283 6.24414 10.0014 6.24414C10.16 6.24414 10.3168 6.27748 10.4616 6.34199C10.6065 6.40651 10.7362 6.50076 10.8423 6.61862C10.9483 6.73649 11.0285 6.87535 11.0774 7.02618C11.1264 7.17701 11.1431 7.33644 11.1264 7.49414L10.6889 11.8779C10.6742 12.0501 10.5954 12.2105 10.4681 12.3274C10.3408 12.4443 10.1742 12.5092 10.0014 12.5092C9.82857 12.5092 9.66202 12.4443 9.53471 12.3274C9.4074 12.2105 9.32861 12.0501 9.31391 11.8779L8.87641 7.49414Z" fill="#E34150"/>
</g>
<defs>
<clipPath id="clip0_2343_2968">
<rect width="20" height="20" fill="white"/>
</clipPath>
</defs>
</svg>
