<svg width="22" height="22" viewBox="0 0 22 22" fill="none" xmlns="http://www.w3.org/2000/svg">
<g id="Share" clip-path="url(#clip0_3432_3865)">
<path id="Vector" d="M18.5629 1.37543C18.0159 1.37543 17.4913 1.59273 17.1045 1.97952C16.7177 2.36632 16.5004 2.89092 16.5004 3.43793C16.5004 3.98494 16.7177 4.50955 17.1045 4.89634C17.4913 5.28313 18.0159 5.50043 18.5629 5.50043C19.1099 5.50043 19.6345 5.28313 20.0213 4.89634C20.4081 4.50955 20.6254 3.98494 20.6254 3.43793C20.6254 2.89092 20.4081 2.36632 20.0213 1.97952C19.6345 1.59273 19.1099 1.37543 18.5629 1.37543ZM15.1254 3.43793C15.1253 2.6314 15.4088 1.85052 15.9263 1.2319C16.4438 0.613278 17.1623 0.196319 17.9562 0.0539703C18.75 -0.0883785 19.5687 0.0529477 20.2689 0.453223C20.9691 0.853498 21.5062 1.48723 21.7864 2.24355C22.0665 2.99987 22.0718 3.8306 21.8013 4.59042C21.5308 5.35023 21.0017 5.99074 20.3066 6.39988C19.6116 6.80902 18.7948 6.96073 17.9992 6.82848C17.2036 6.69623 16.4798 6.28843 15.9545 5.67643L6.71724 9.96643C6.92951 10.6394 6.92951 11.3614 6.71724 12.0344L15.9545 16.3244C16.5098 15.6786 17.285 15.262 18.13 15.1552C18.975 15.0484 19.8295 15.2591 20.528 15.7465C21.2265 16.2339 21.7191 16.9632 21.9105 17.7931C22.1019 18.623 21.9784 19.4944 21.5639 20.2385C21.1494 20.9825 20.4735 21.5462 19.6671 21.8202C18.8607 22.0943 17.9813 22.0593 17.1992 21.7219C16.4172 21.3845 15.7883 20.7688 15.4343 19.9941C15.0804 19.2195 15.0266 18.341 15.2835 17.5289L6.04624 13.2389C5.58896 13.7718 4.97945 14.1519 4.29969 14.328C3.61992 14.5042 2.90253 14.4679 2.244 14.2241C1.58548 13.9803 1.01742 13.5407 0.616237 12.9643C0.215056 12.388 0 11.7026 0 11.0004C0 10.2982 0.215056 9.61286 0.616237 9.03654C1.01742 8.46021 1.58548 8.02058 2.244 7.77677C2.90253 7.53297 3.61992 7.49669 4.29969 7.67281C4.97945 7.84894 5.58896 8.22902 6.04624 8.76193L15.2835 4.47193C15.1783 4.13735 15.125 3.78865 15.1254 3.43793ZM3.43786 8.93793C2.89086 8.93793 2.36625 9.15523 1.97946 9.54202C1.59266 9.92882 1.37536 10.4534 1.37536 11.0004C1.37536 11.5474 1.59266 12.072 1.97946 12.4588C2.36625 12.8456 2.89086 13.0629 3.43786 13.0629C3.98487 13.0629 4.50948 12.8456 4.89627 12.4588C5.28307 12.072 5.50037 11.5474 5.50037 11.0004C5.50037 10.4534 5.28307 9.92882 4.89627 9.54202C4.50948 9.15523 3.98487 8.93793 3.43786 8.93793ZM18.5629 16.5004C18.0159 16.5004 17.4913 16.7177 17.1045 17.1045C16.7177 17.4913 16.5004 18.0159 16.5004 18.5629C16.5004 19.1099 16.7177 19.6345 17.1045 20.0213C17.4913 20.4081 18.0159 20.6254 18.5629 20.6254C19.1099 20.6254 19.6345 20.4081 20.0213 20.0213C20.4081 19.6345 20.6254 19.1099 20.6254 18.5629C20.6254 18.0159 20.4081 17.4913 20.0213 17.1045C19.6345 16.7177 19.1099 16.5004 18.5629 16.5004Z" fill="black" fill-opacity="0.6"/>
</g>
<defs>
<clipPath id="clip0_3432_3865">
<rect width="22" height="22" fill="white"/>
</clipPath>
</defs>
</svg>
